<svg width="224" height="120" viewBox="0 0 224 80" fill="none" xmlns="http://www.w3.org/2000/svg">
<path fill-rule="evenodd" clip-rule="evenodd" d="M174.018 43.758V44.907V47.1496H183.92V44.9126V44.3686V43.6914V42.8754V41.9262V40.2831C183.916 39.8428 183.917 39.2907 183.918 38.6226V38.6211V38.6196V38.618V38.6164C183.919 38.2333 183.92 37.8122 183.92 37.3522L183.864 13.2501H179.632L174.018 13.411V15.8257V16.3863V17.3189V18.962V21.6209V37.3966V41.8262V43.758ZM183.592 8.30419V0H174.312V8.30419H183.592ZM10.5232 38.6347V40.8384V42.4982V43.5806V44.3411V44.9017V47.1665L0 47.1387V44.9017V44.1857V43.0921V41.3436V38.6458V9.39244V6.72244V4.9628V3.86371V3.11989V0.882862H10.5232V3.11989V6.53371V9.42019V38.6347ZM53.6921 47.1441H43.9012V44.9071V43.808V41.9096C43.9012 41.5845 43.9045 41.1573 43.9085 40.632C43.915 39.7939 43.9234 38.7062 43.9234 37.3856V28.3376C43.9234 26.7333 43.8901 25.4178 43.8235 24.3909C43.7569 23.3639 43.646 22.5202 43.5018 21.8652C43.352 21.2102 43.1523 20.6606 42.8916 20.2221C42.6308 19.7836 42.3424 19.4228 42.0262 19.1397C41.71 18.8566 41.3494 18.6456 40.9445 18.5124C40.5395 18.3736 40.0181 18.307 39.3857 18.307C38.5259 18.307 37.6383 18.5735 36.7119 19.1064C35.7855 19.6393 35.0089 20.372 34.3765 21.3101C33.7441 22.2482 33.4279 23.2474 33.4279 24.3076L33.4778 37.4022C33.4778 38.7228 33.4841 39.7728 33.489 40.5818L33.489 40.5835C33.492 41.0898 33.4945 41.5016 33.4945 41.8263V43.808V44.9071V47.1441H23.5871V44.9071V43.758V41.8263C23.5871 41.5096 23.5927 41.0993 23.5998 40.593L23.5998 40.5925L23.5998 40.5922L23.5998 40.5918L23.5998 40.5916V40.5915V40.5914V40.5912C23.6111 39.7753 23.6259 38.7103 23.6259 37.3856V23.4583C23.6259 22.472 23.6124 21.6385 23.6013 20.9556V20.9555C23.5936 20.4815 23.5871 20.08 23.5871 19.7503V17.8408V16.6307V15.8313V13.4167L29.151 13.2557H33.4168L32.9065 18.135L33.3114 18.2349C34.7093 16.9915 35.9408 16.0145 37.0059 15.304C38.0654 14.5935 39.1804 14.0273 40.3398 13.611C41.5047 13.1946 42.7251 12.9837 44.0121 12.9837C45.8649 12.9837 47.4015 13.2501 48.6163 13.783C49.8367 14.3159 50.8242 15.0875 51.5786 16.1033C52.333 17.1191 52.8767 18.3625 53.2039 19.8335C53.5312 21.3045 53.6921 23.0087 53.6921 24.9515V37.3578V40.1666V42.2371V43.5083V44.3409V44.9182V47.1441ZM91.9982 10.1813C91.8013 10.7608 91.5978 11.3595 91.369 12.0014L83.0037 36.2367L76.2971 11.9015C76.0692 11.0693 75.8824 10.373 75.7282 9.79821L75.7268 9.79304L75.7264 9.79159C75.5924 9.29208 75.483 8.88463 75.3929 8.5598C75.3161 8.2788 75.2358 7.98043 75.1545 7.67809L75.1543 7.67743C75.0301 7.21551 74.9033 6.74434 74.7827 6.31167C74.6792 5.94041 74.6056 5.66683 74.5352 5.40517L74.5351 5.40507C74.4508 5.09167 74.3711 4.79538 74.2501 4.36884C74.1895 4.15744 74.1679 4.07178 74.145 3.98043C74.1113 3.84633 74.0745 3.69997 73.9062 3.12544L73.2849 0.88841H62.2625L62.8394 2.82569C62.959 3.23537 62.9971 3.35054 63.0245 3.43333C63.0543 3.52328 63.0714 3.575 63.1667 3.92477C63.288 4.37108 63.3842 4.68158 63.4883 5.01799L63.4885 5.01857L63.4886 5.01867C63.5605 5.2511 63.6363 5.49595 63.727 5.80653C63.8482 6.21994 63.9782 6.64769 64.1294 7.14493L64.1295 7.14513L64.1304 7.14807C64.3179 7.76515 64.5381 8.48931 64.8142 9.42574L75.992 47.383H83.8136L98.0036 9.55897C98.6345 7.86278 99.0954 6.64627 99.416 5.80005L99.4514 5.70662C99.6179 5.26125 99.7206 4.98841 99.8162 4.73413L99.8168 4.73252C99.9057 4.49617 99.9887 4.27558 100.112 3.94698C100.245 3.58727 100.282 3.4895 100.307 3.42569L100.307 3.42535C100.331 3.36236 100.342 3.33219 100.422 3.11434L101.26 0.882862H95.1911L94.4256 3.10323L94.3023 3.46499L94.0705 4.14125L94.0381 4.23616L94.0362 4.24183C93.7641 5.0377 93.5457 5.6763 93.1996 6.67803C93.059 7.08818 92.9183 7.49726 92.7813 7.89554L92.7736 7.91807C92.6001 8.42272 92.4326 8.90971 92.2788 9.35913C92.1854 9.63055 92.0925 9.90371 91.9982 10.1813ZM121.646 42.7034L121.136 42.5313C119.283 44.3409 117.486 45.6509 115.733 46.4614C113.98 47.2773 112.127 47.6826 110.163 47.6826C108.222 47.6826 106.535 47.3273 105.099 46.6168C103.662 45.9063 102.58 44.9182 101.848 43.6526C101.116 42.387 100.75 40.9326 100.75 39.2784C100.75 35.959 102.381 33.3445 105.642 31.435C108.904 29.5255 113.858 28.3209 120.492 27.8269V24.6073C120.492 22.5035 120.254 20.8882 119.782 19.7447C119.311 18.6068 118.701 17.8019 117.952 17.3412C117.208 16.8804 116.315 16.6473 115.278 16.6473C114.241 16.6473 113.342 16.8249 112.588 17.1913C111.833 17.5521 111.145 18.2349 110.541 19.2396C109.93 20.2443 109.481 21.6431 109.187 23.425H102.785V17.2579C104.86 16.3309 106.591 15.6204 107.967 15.1208C109.342 14.6268 110.701 14.2105 112.049 13.8829C113.392 13.5554 114.596 13.3223 115.655 13.1891C116.715 13.0559 117.78 12.9837 118.839 12.9837C121.569 12.9837 123.754 13.3445 125.391 14.0717C127.027 14.7933 128.253 15.9701 129.063 17.5965C129.878 19.2229 130.283 21.4711 130.283 24.3409L130.361 37.541V41.0103V42.8977V43.7747V44.352V44.9126V47.1497H121.341L121.646 42.7034ZM120.531 31.1463C117.031 31.2352 114.44 31.8902 112.759 33.1114C111.079 34.3326 110.235 36.12 110.235 38.468C110.235 39.8724 110.618 40.9382 111.389 41.6709C112.155 42.4036 113.22 42.77 114.573 42.77C115.611 42.77 116.593 42.4924 117.519 41.9373C118.445 41.3823 119.178 40.644 119.721 39.717C120.265 38.79 120.537 37.8074 120.537 36.7694V31.1463H120.531ZM214.108 42.5313L214.618 42.7034L214.313 47.1497H223.333V44.9126V44.352V43.7747V42.8977V41.0103V37.541L223.255 24.3409C223.255 21.4711 222.851 19.2229 222.035 17.5965C221.225 15.9701 219.999 14.7933 218.363 14.0717C216.726 13.3445 214.541 12.9837 211.811 12.9837C210.752 12.9837 209.687 13.0559 208.627 13.1891C207.568 13.3223 206.364 13.5554 205.022 13.8829C203.674 14.2105 202.315 14.6268 200.939 15.1208C199.563 15.6204 197.832 16.3309 195.758 17.2579V23.425H202.159C202.453 21.6431 202.903 20.2443 203.513 19.2396C204.117 18.2349 204.805 17.5521 205.56 17.1913C206.314 16.8249 207.213 16.6473 208.25 16.6473C209.287 16.6473 210.181 16.8804 210.924 17.3412C211.673 17.8019 212.283 18.6068 212.755 19.7447C213.226 20.8882 213.465 22.5035 213.465 24.6073V27.8269C206.83 28.3209 201.876 29.5255 198.615 31.435C195.353 33.3445 193.722 35.959 193.722 39.2784C193.722 40.9326 194.088 42.387 194.82 43.6526C195.552 44.9182 196.634 45.9063 198.071 46.6168C199.508 47.3273 201.194 47.6826 203.136 47.6826C205.099 47.6826 206.952 47.2773 208.705 46.4614C210.458 45.6509 212.255 44.3409 214.108 42.5313ZM205.732 33.1114C207.412 31.8902 210.003 31.2352 213.503 31.1463H213.509V36.7694C213.509 37.8074 213.237 38.79 212.693 39.717C212.15 40.644 211.418 41.3823 210.491 41.9373C209.565 42.4924 208.583 42.77 207.546 42.77C206.192 42.77 205.127 42.4036 204.361 41.6709C203.59 40.9382 203.208 39.8724 203.208 38.468C203.208 36.12 204.051 34.3326 205.732 33.1114ZM151.385 18.368L151.823 18.468C153.471 16.5251 155.163 15.1263 156.905 14.2659C158.641 13.4111 160.527 12.9781 162.563 12.9781C163.939 12.9781 165.386 13.128 166.901 13.4166V22.7699H160.771C160.388 21.4599 159.884 20.4552 159.262 19.7558C158.641 19.0564 157.809 18.7067 156.772 18.7067C156.272 18.7067 155.729 18.8565 155.13 19.1618C154.53 19.4671 153.976 19.8946 153.471 20.4496C152.961 21.0047 152.6 21.5654 152.389 22.1427C152.173 22.72 152.034 23.3028 151.968 23.8912C151.901 24.4796 151.868 25.3622 151.868 26.5335V37.3467V41.8707V43.8524V45.118V47.1385H141.971V44.9015V43.7525V41.8152V37.4133V23.4582C141.971 21.7874 141.971 20.5718 141.994 19.7391C142.007 19.2416 141.996 18.8608 141.985 18.5048V18.5046V18.5044V18.5043V18.5042C141.978 18.2845 141.971 18.0742 141.971 17.8518V16.6251V15.7536V13.4166L147.596 13.2501H151.862L151.385 18.368ZM183.531 77.0137C183.896 77.0249 184.031 77.0211 184.163 77.0173C184.202 77.0162 184.241 77.0151 184.286 77.0144C184.314 77.014 184.345 77.0137 184.38 77.0137H184.996H185.645H187.015L186.827 80.0001H175.643V79.1952C175.987 78.4126 176.481 77.5633 177.124 76.6418C177.773 75.7204 178.561 74.7156 179.487 73.6221C180.364 72.5896 181.035 71.7348 181.496 71.0687C181.956 70.4026 182.3 69.7698 182.527 69.1758C182.755 68.5819 182.871 67.9657 182.871 67.3329C182.871 66.4392 182.672 65.7342 182.272 65.2236C181.873 64.7129 181.329 64.4631 180.636 64.4631C179.987 64.4631 179.443 64.6962 179.016 65.1514C178.589 65.6121 178.278 66.3393 178.084 67.3329H175.887V64.452C176.88 64.0523 177.657 63.7748 178.217 63.6138C178.777 63.4528 179.332 63.3362 179.881 63.253C180.431 63.1697 181.024 63.1309 181.668 63.1309C182.866 63.1309 183.842 63.2918 184.597 63.6138C185.351 63.9357 185.9 64.3687 186.239 64.9238C186.577 65.4733 186.743 66.1172 186.743 66.85C186.743 67.4939 186.621 68.0934 186.383 68.6429C186.144 69.1925 185.728 69.8308 185.14 70.5358C184.552 71.2408 183.554 72.2566 182.156 73.5777C181.529 74.1883 180.941 74.8045 180.397 75.4262C179.854 76.0479 179.449 76.5364 179.188 76.8861V77.0082L183.531 77.0137ZM136.367 77.0173C136.236 77.0211 136.101 77.0249 135.736 77.0137L131.393 77.0082V76.8861C131.653 76.5364 132.058 76.0479 132.602 75.4262C133.146 74.8045 133.734 74.1883 134.36 73.5777C135.758 72.2566 136.757 71.2408 137.345 70.5358C137.933 69.8308 138.349 69.198 138.587 68.6429C138.826 68.0934 138.948 67.4939 138.948 66.85C138.948 66.1172 138.782 65.4733 138.443 64.9238C138.105 64.3687 137.556 63.9357 136.801 63.6138C136.047 63.2918 135.07 63.1309 133.872 63.1309C133.229 63.1309 132.635 63.1697 132.086 63.253C131.537 63.3362 130.982 63.4528 130.422 63.6138C129.862 63.7748 129.085 64.0523 128.092 64.452V67.3329H130.289C130.483 66.3393 130.794 65.6121 131.221 65.1514C131.648 64.6962 132.191 64.4631 132.84 64.4631C133.534 64.4631 134.078 64.7129 134.477 65.2236C134.876 65.7342 135.076 66.4392 135.076 67.3329C135.076 67.9657 134.96 68.5819 134.732 69.1758C134.505 69.7698 134.161 70.4026 133.7 71.0687C133.24 71.7348 132.569 72.5896 131.692 73.6221C130.766 74.7156 129.978 75.7204 129.329 76.6418C128.686 77.5633 128.192 78.4126 127.848 79.1952V80.0001H139.031L139.22 77.0137H137.85H137.201H136.585C136.495 77.0137 136.432 77.0155 136.367 77.0173ZM87.9409 77.0137C88.3057 77.0249 88.4407 77.0211 88.5722 77.0173C88.6367 77.0155 88.7002 77.0137 88.7897 77.0137H89.4054H90.0544H91.4246L91.236 80.0001H80.0472V79.1952C80.3911 78.4126 80.8848 77.5633 81.5283 76.6418C82.1773 75.7204 82.965 74.7156 83.8914 73.6221C84.7679 72.5896 85.4391 71.7348 85.8995 71.0687C86.36 70.4026 86.7039 69.7698 86.9313 69.1758C87.1588 68.5819 87.2753 67.9657 87.2753 67.3329C87.2753 66.4392 87.0756 65.7342 86.6761 65.2236C86.2767 64.7129 85.7331 64.4631 85.0397 64.4631C84.3907 64.4631 83.847 64.6962 83.4199 65.1514C82.9928 65.6121 82.6821 66.3393 82.488 67.3329H80.2912V64.452C81.2842 64.0523 82.0608 63.7748 82.6211 63.6138C83.1814 63.4528 83.7361 63.3362 84.2853 63.253C84.8345 63.1697 85.428 63.1309 86.0715 63.1309C87.2697 63.1309 88.246 63.2918 89.0005 63.6138C89.7549 63.9357 90.3041 64.3687 90.6425 64.9238C90.9808 65.4733 91.1472 66.1172 91.1472 66.85C91.1472 67.4939 91.0252 68.0934 90.7867 68.6429C90.5481 69.1925 90.1321 69.8308 89.5441 70.5358C88.9561 71.2463 87.9576 72.2566 86.5597 73.5777C85.9328 74.1883 85.3448 74.8045 84.8012 75.4262C84.2575 76.0479 83.8526 76.5364 83.5919 76.8861V77.0082L87.9409 77.0137ZM40.7715 77.0173C40.64 77.0211 40.505 77.0249 40.1402 77.0137L35.7967 77.0082V76.8861C36.0574 76.5364 36.4624 76.0479 37.006 75.4262C37.5496 74.8045 38.1376 74.1883 38.7645 73.5777C40.1624 72.2566 41.1609 71.2408 41.7489 70.5358C42.3369 69.8308 42.753 69.1925 42.9915 68.6429C43.23 68.0934 43.3521 67.4939 43.3521 66.85C43.3521 66.1172 43.1857 65.4733 42.8473 64.9238C42.5089 64.3687 41.9597 63.9357 41.2053 63.6138C40.4509 63.2918 39.4745 63.1309 38.2763 63.1309C37.6328 63.1309 37.0393 63.1697 36.4901 63.253C35.9409 63.3362 35.3862 63.4528 34.8259 63.6138C34.2656 63.7748 33.489 64.0523 32.4961 64.452V67.3329H34.6928C34.8869 66.3393 35.1976 65.6121 35.6247 65.1514C36.0519 64.6962 36.5955 64.4631 37.2445 64.4631C37.9379 64.4631 38.4816 64.7129 38.881 65.2236C39.2804 65.7342 39.4801 66.4392 39.4801 67.3329C39.4801 67.9657 39.3636 68.5819 39.1361 69.1758C38.9087 69.7698 38.5648 70.4026 38.1044 71.0687C37.6439 71.7348 36.9727 72.5896 36.0962 73.6221C35.1698 74.7156 34.3821 75.7204 33.7331 76.6418C33.0896 77.5633 32.5959 78.4126 32.252 79.1952V80.0001H43.4353L43.6239 77.0137H42.2537H41.6047H40.9889C40.8995 77.0137 40.8359 77.0155 40.7715 77.0173Z" fill="white"/>
</svg>
